<svg width="64" height="64" fill="none" xmlns="http://www.w3.org/2000/svg">
  <path d="M32 64c17.673 0 32-14.327 32-32C64 14.327 49.673 0 32 0 14.327 0 0 14.327 0 32c0 17.673 14.327 32 32 32Z"
        fill="#fff"/>
  <path
    d="M30.609 32H64c0-2.888-.385-5.686-1.102-8.348h-32.29V32ZM30.609 15.304h28.694a32.168 32.168 0 0 0-7.383-8.347H30.609v8.347ZM32 64a31.863 31.863 0 0 0 19.92-6.956H12.08A31.862 31.862 0 0 0 32 64ZM4.696 48.696h54.607a31.81 31.81 0 0 0 3.594-8.348H1.102a31.81 31.81 0 0 0 3.594 8.348Z"
    fill="#D80027"/>
  <path
    d="M14.823 4.997h2.916l-2.712 1.97 1.036 3.19-2.713-1.971-2.712 1.97.895-2.754a32.176 32.176 0 0 0-6.206 6.917h.934l-1.727 1.254a31.93 31.93 0 0 0-.774 1.368l.825 2.537-1.539-1.117A31.7 31.7 0 0 0 2 20.845l.908 2.796h3.353l-2.713 1.97L4.585 28.8l-2.713-1.97-1.625 1.18A32.307 32.307 0 0 0 0 32h32V0a31.848 31.848 0 0 0-17.177 4.997Zm1.24 23.803-2.713-1.97-2.712 1.97 1.036-3.189-2.712-1.97h3.352l1.036-3.189 1.036 3.189h3.353l-2.712 1.97 1.036 3.189Zm-1.036-12.51 1.036 3.188-2.713-1.97-2.712 1.97 1.036-3.188-2.712-1.971h3.352l1.036-3.189 1.036 3.189h3.353l-2.712 1.97ZM27.54 28.8l-2.712-1.97-2.713 1.97 1.036-3.189-2.712-1.97h3.353l1.036-3.189 1.036 3.189h3.352l-2.712 1.97L27.54 28.8Zm-1.036-12.51 1.036 3.188-2.712-1.97-2.713 1.97 1.036-3.188-2.712-1.971h3.353l1.036-3.189 1.036 3.189h3.352l-2.712 1.97Zm0-9.322 1.036 3.188-2.712-1.97-2.713 1.97 1.036-3.188-2.712-1.97h3.353l1.036-3.19 1.036 3.19h3.352l-2.712 1.97Z"
    fill="#144199"/>
</svg>
