<svg width="64" height="64" fill="none" xmlns="http://www.w3.org/2000/svg"><g clip-path="url(#a)"><path d="M-.001 32c0 3.915.704 7.664 1.99 11.13L32 45.914l30.01-2.782A31.932 31.932 0 0 0 63.999 32c0-3.915-.704-7.664-1.99-11.131l-30.01-2.783-30.01 2.783A31.932 31.932 0 0 0 0 32z" fill="gold"/><path d="M62.01 20.87C57.49 8.685 45.76 0 32 0 18.243 0 6.514 8.685 1.992 20.87h60.02zM1.99 43.129C6.51 55.314 18.24 63.999 32 63.999c13.758 0 25.488-8.685 30.009-20.87H1.989z" fill="#D80027"/></g><defs><clipPath id="a"><path fill="#fff" d="M0 0h64v64H0z"/></clipPath></defs></svg>