<svg width="64" height="64" fill="none" xmlns="http://www.w3.org/2000/svg"><g clip-path="url(#a)"><path d="M64 32c0-13.758-8.684-25.487-20.87-30.009v60.02C55.317 57.489 64 45.76 64 32z" fill="#D80027"/><path d="M0 32c0 13.759 8.684 25.488 20.87 30.01V1.99C8.683 6.512 0 18.241 0 32z" fill="#144199"/><path d="M43.132 1.99A31.93 31.93 0 0 0 32.002 0c-3.914 0-7.664.704-11.13 1.99v60.02A31.932 31.932 0 0 0 32.002 64c3.914 0 7.664-.705 11.13-1.99V1.99z" fill="#fff"/></g><defs><clipPath id="a"><path fill="#fff" d="M0 0h64v64H0z"/></clipPath></defs></svg>