<svg width="64" height="64" fill="none" xmlns="http://www.w3.org/2000/svg"><g clip-path="url(#a)"><path d="M32 64c17.673 0 32-14.327 32-32C64 14.327 49.673 0 32 0 14.327 0 0 14.327 0 32c0 17.673 14.327 32 32 32z" fill="#D80027"/><path d="m17.508 19.476 2.763 8.5h8.937l-7.225 5.263 2.763 8.5-7.238-5.25-7.237 5.25 2.775-8.5-7.238-5.263h8.938l2.762-8.5zM37.93 49.564l-2.112-2.6-3.125 1.212 1.812-2.812-2.112-2.613 3.237.863 1.825-2.813.175 3.35 3.25.863-3.137 1.2.187 3.35zM42.133 41.94l1-3.2-2.738-1.938 3.35-.05.988-3.2 1.088 3.175 3.35-.038-2.688 2 1.075 3.175-2.737-1.937-2.688 2.012zM47.796 23.488l-1.475 3.013 2.4 2.337-3.313-.475-1.475 3-.575-3.3-3.325-.475 2.975-1.562-.575-3.313 2.4 2.338 2.963-1.563zM38.02 14.364l-.25 3.337 3.112 1.263-3.263.8-.237 3.35-1.763-2.85-3.262.8 2.162-2.563-1.775-2.837 3.113 1.262 2.162-2.562z" fill="gold"/></g><defs><clipPath id="a"><path fill="#fff" d="M0 0h64v64H0z"/></clipPath></defs></svg>